<?xml version="1.0" standalone="no"?>
<svg xmlns:xlink="http://www.w3.org/1999/xlink" id="wave" style="transform:rotate(0deg); transition: 0.3s" viewBox="0 0 1440 200" version="1.1" xmlns="http://www.w3.org/2000/svg"><defs><linearGradient id="sw-gradient-0" x1="0" x2="0" y1="1" y2="0"><stop stop-color="rgba(0, 0, 0, 0.0784313725490196)" offset="0%"/><stop stop-color="rgba(0, 0, 0, 0.0784313725490196)" offset="100%"/></linearGradient></defs><path style="transform:translate(0, 0px); opacity:1" fill="url(#sw-gradient-0)" d="M0,40L120,63.3C240,87,480,133,720,140C960,147,1200,113,1440,100C1680,87,1920,93,2160,83.3C2400,73,2640,47,2880,60C3120,73,3360,127,3600,150C3840,173,4080,167,4320,156.7C4560,147,4800,133,5040,136.7C5280,140,5520,160,5760,143.3C6000,127,6240,73,6480,73.3C6720,73,6960,127,7200,146.7C7440,167,7680,153,7920,130C8160,107,8400,73,8640,76.7C8880,80,9120,120,9360,120C9600,120,9840,80,10080,73.3C10320,67,10560,93,10800,103.3C11040,113,11280,107,11520,100C11760,93,12000,87,12240,76.7C12480,67,12720,53,12960,63.3C13200,73,13440,107,13680,110C13920,113,14160,87,14400,93.3C14640,100,14880,140,15120,150C15360,160,15600,140,15840,113.3C16080,87,16320,53,16560,43.3C16800,33,17040,47,17160,53.3L17280,60L17280,200L17160,200C17040,200,16800,200,16560,200C16320,200,16080,200,15840,200C15600,200,15360,200,15120,200C14880,200,14640,200,14400,200C14160,200,13920,200,13680,200C13440,200,13200,200,12960,200C12720,200,12480,200,12240,200C12000,200,11760,200,11520,200C11280,200,11040,200,10800,200C10560,200,10320,200,10080,200C9840,200,9600,200,9360,200C9120,200,8880,200,8640,200C8400,200,8160,200,7920,200C7680,200,7440,200,7200,200C6960,200,6720,200,6480,200C6240,200,6000,200,5760,200C5520,200,5280,200,5040,200C4800,200,4560,200,4320,200C4080,200,3840,200,3600,200C3360,200,3120,200,2880,200C2640,200,2400,200,2160,200C1920,200,1680,200,1440,200C1200,200,960,200,720,200C480,200,240,200,120,200L0,200Z"/></svg>